# xmcd
#
# Track frame offsets:
#	150
#	19575
#	35847
#	51107
#	68872
#	83705
#	97854
#	113187
#	130775
#	146330
#	165285
#	184712
#	200982
#	216245
#	234010
#	248845
#	262997
#	278330
#	295917
#	311472
#
# Disc length: 4405 seconds
#
# Revision: 1
# Processed by: cddbd v1.5.1PL2 Copyright (c) Steve Scherf et al.
# Submitted via: audiograbber 1.83.01
#
DISCID=0f113314
DTITLE=Various Artist - Thc0603
DYEAR=1900
DGENRE=Country
TTITLE0=Urban, Keith - Tonight I Wanna Cry (Vocals)
TTITLE1=Ingram, Jack - Wherever You Are (Vocals)
TTITLE2=SheDaisy - I'm Taking The Wheel (Vocals)
TTITLE3=Bon Jovi and Jennifer Nettles - Who Says You Can't Go Home (Vocals)
TTITLE4=Aldean, Jason - Why (Vocals)
TTITLE5=O'neal, Jamie - I Love My Life (Vocals)
TTITLE6=Rogers, Kenny - I Can't Unlove You (Vocals)
TTITLE7=Womack, Lee Ann - Twenty Years And Two Husbands Ago (Vocals)
TTITLE8=Messina, Jo Dee - I'm Not Going Down (Vocals)
TTITLE9=Lonestar - I'll Die Tryin' (Vocals)
TTITLE10=Urban, Keith - Tonight I Wanna Cry
TTITLE11=Ingram, Jack - Wherever You Are
TTITLE12=SheDaisy - I'm Taking The Wheel
TTITLE13=Aldean, Jason - Who Says You Can't Go Home
TTITLE14=Bon Jovi and Jennifer Nettles - Why
TTITLE15=O'neal, Jamie - I Love My Life
TTITLE16=Rogers, Kenny - I Can't Unlove You
TTITLE17=Womack, Lee Ann - Twenty Years And Two Husbands Ago
TTITLE18=Messina, Jo Dee - I'm Not Going Down
TTITLE19=Lonestar - I'll Die Tryin'
EXTD=
EXTT0=
EXTT1=
EXTT2=
EXTT3=
EXTT4=
EXTT5=
EXTT6=
EXTT7=
EXTT8=
EXTT9=
EXTT10=
EXTT11=
EXTT12=
EXTT13=
EXTT14=
EXTT15=
EXTT16=
EXTT17=
EXTT18=
EXTT19=
PLAYORDER=
